<?xml version="1.0" encoding="UTF-8"?>
<svg xmlns="http://www.w3.org/2000/svg" xmlns:xlink="http://www.w3.org/1999/xlink" viewBox="0 0 400 400" width="400px" height="400px">
<g id="surface98008444">
<path style=" stroke:none;fill-rule:nonzero;fill:rgb(46.27451%,65.098041%,95.686275%);fill-opacity:1;" d="M 124 328 C 97.53125 328 76 306.46875 76 280 L 76 124 C 76 97.53125 97.53125 76 124 76 L 280 76 C 306.46875 76 328 97.53125 328 124 L 328 280 C 328 306.46875 306.46875 328 280 328 Z M 124 328 "/>
<path style=" stroke:none;fill-rule:nonzero;fill:rgb(26.274511%,32.549021%,49.019608%);fill-opacity:1;" d="M 330 162 L 310 178 L 294 210.429688 L 278 182 L 262 194 L 249.460938 165.785156 L 246 166.460938 L 243.140625 165.992188 L 230.246094 202 L 218.113281 206.261719 L 202 230 L 186 222 L 170 182 L 154 213.730469 L 138 206 L 122 226 L 110 230.515625 L 94 222 L 78 218 L 76.335938 282.496094 L 84.832031 308.988281 L 104.828125 324 L 121.441406 328 L 287.484375 327.597656 L 306.898438 321.125 L 324 300.292969 L 328.136719 276.222656 Z M 330 162 "/>
<path style="fill:none;stroke-width:1;stroke-linecap:round;stroke-linejoin:round;stroke:rgb(20.392157%,22.745098%,34.509805%);stroke-opacity:1;stroke-miterlimit:10;" d="M 62.335939 41.424806 L 65.500001 48.54297 L 69.500002 45.54297 L 73.500002 52.650392 L 77.500002 44.54297 L 82.500002 40.54297 " transform="matrix(4,0,0,4,0,0)"/>
<path style="fill:none;stroke-width:1;stroke-linecap:round;stroke-linejoin:round;stroke:rgb(20.392157%,22.745098%,34.509805%);stroke-opacity:1;stroke-miterlimit:10;" d="M 19.5 54.500001 L 23.500001 55.500001 L 27.500001 57.628908 L 30.500001 56.500001 L 34.500001 51.500001 L 38.500001 53.432618 L 42.500001 45.500001 L 46.500001 55.500001 L 50.500001 57.500001 L 54.528322 51.565431 L 57.561525 50.500001 L 60.785158 41.498048 " transform="matrix(4,0,0,4,0,0)"/>
<path style=" stroke:none;fill-rule:nonzero;fill:rgb(20.392157%,22.745098%,34.509805%);fill-opacity:1;" d="M 280 332 L 124 332 C 95.28125 332 72 308.71875 72 280 L 72 124 C 72 95.28125 95.28125 72 124 72 L 280 72 C 308.71875 72 332 95.28125 332 124 L 332 280 C 332 308.71875 308.714844 332 280 332 Z M 80 124 L 80 280 C 80 304.300781 99.699219 324 124 324 L 280 324 C 304.300781 324 324 304.300781 324 280 L 324 124 C 324 99.699219 304.300781 80 280 80 L 124 80 C 99.695312 80 80 99.699219 80 124 Z M 80 124 "/>
<path style="fill:none;stroke-width:1;stroke-linecap:round;stroke-linejoin:round;stroke:rgb(20.392157%,22.745098%,34.509805%);stroke-opacity:1;stroke-miterlimit:10;" d="M 27.500001 41.500001 L 27.500001 81.500002 " transform="matrix(4,0,0,4,0,0)"/>
<path style="fill:none;stroke-width:1;stroke-linecap:round;stroke-linejoin:round;stroke:rgb(20.392157%,22.745098%,34.509805%);stroke-opacity:1;stroke-miterlimit:10;" d="M 27.500001 32.500001 L 27.500001 36.500001 " transform="matrix(4,0,0,4,0,0)"/>
<path style="fill:none;stroke-width:1;stroke-linecap:round;stroke-linejoin:round;stroke:rgb(20.392157%,22.745098%,34.509805%);stroke-opacity:1;stroke-miterlimit:10;" d="M 27.500001 19.5 L 27.500001 29.500001 " transform="matrix(4,0,0,4,0,0)"/>
<path style="fill:none;stroke-width:1;stroke-linecap:round;stroke-linejoin:round;stroke:rgb(20.392157%,22.745098%,34.509805%);stroke-opacity:1;stroke-miterlimit:10;" d="M 38.500001 73.500002 L 38.500001 82.000002 " transform="matrix(4,0,0,4,0,0)"/>
<path style="fill:none;stroke-width:1;stroke-linecap:round;stroke-linejoin:round;stroke:rgb(20.392157%,22.745098%,34.509805%);stroke-opacity:1;stroke-miterlimit:10;" d="M 38.500001 20 L 38.500001 69.500002 " transform="matrix(4,0,0,4,0,0)"/>
<path style="fill:none;stroke-width:1;stroke-linecap:round;stroke-linejoin:round;stroke:rgb(20.392157%,22.745098%,34.509805%);stroke-opacity:1;stroke-miterlimit:10;" d="M 50.500001 69.500002 L 50.500001 73.500002 " transform="matrix(4,0,0,4,0,0)"/>
<path style="fill:none;stroke-width:1;stroke-linecap:round;stroke-linejoin:round;stroke:rgb(20.392157%,22.745098%,34.509805%);stroke-opacity:1;stroke-miterlimit:10;" d="M 50.500001 33.500001 L 50.500001 66.500001 " transform="matrix(4,0,0,4,0,0)"/>
<path style="fill:none;stroke-width:1;stroke-linecap:round;stroke-linejoin:round;stroke:rgb(20.392157%,22.745098%,34.509805%);stroke-opacity:1;stroke-miterlimit:10;" d="M 50.500001 28.500001 L 50.500001 30.500001 " transform="matrix(4,0,0,4,0,0)"/>
<path style=" stroke:none;fill-rule:nonzero;fill:rgb(4.705882%,79.215688%,91.37255%);fill-opacity:1;" d="M 246 326 C 243.792969 326 242 324.203125 242 322 L 242 81 C 242 78.796875 243.792969 77 246 77 C 248.207031 77 250 78.796875 250 81 L 250 322 C 250 324.207031 248.207031 326 246 326 Z M 246 326 "/>
<path style=" stroke:none;fill-rule:nonzero;fill:rgb(20.392157%,22.745098%,34.509805%);fill-opacity:1;" d="M 248 80 L 248 324 L 244 324 L 244 80 M 246 75 C 242.691406 75 240 73.691406 240 77 L 240 325 C 240 328.308594 242.691406 331 246 331 C 249.308594 331 252 328.308594 252 325 L 252 77 C 252 73.691406 249.308594 75 246 75 Z M 246 75 "/>
<path style=" stroke:none;fill-rule:nonzero;fill:rgb(4.705882%,79.215688%,91.37255%);fill-opacity:1;" d="M 258 154 C 258 159.46875 254.34375 164.078125 249.34375 165.527344 C 248.285156 165.835938 247.160156 166 246 166 C 239.371094 166 234 160.628906 234 154 C 234 147.371094 239.371094 142 246 142 C 252.628906 142 258 147.371094 258 154 Z M 258 154 "/>
<path style="fill:none;stroke-width:1;stroke-linecap:round;stroke-linejoin:round;stroke:rgb(20.392157%,22.745098%,34.509805%);stroke-opacity:1;stroke-miterlimit:10;" d="M 73.500002 39.500001 L 73.500002 82.000002 " transform="matrix(4,0,0,4,0,0)"/>
<path style="fill:none;stroke-width:1;stroke-linecap:round;stroke-linejoin:round;stroke:rgb(20.392157%,22.745098%,34.509805%);stroke-opacity:1;stroke-miterlimit:10;" d="M 73.500002 32.500001 L 73.500002 35.500001 " transform="matrix(4,0,0,4,0,0)"/>
<path style="fill:none;stroke-width:1;stroke-linecap:round;stroke-linejoin:round;stroke:rgb(20.392157%,22.745098%,34.509805%);stroke-opacity:1;stroke-miterlimit:10;" d="M 73.500002 20 L 73.500002 29.500001 " transform="matrix(4,0,0,4,0,0)"/>
<path style="fill:none;stroke-width:1;stroke-linecap:round;stroke-linejoin:round;stroke:rgb(20.392157%,22.745098%,34.509805%);stroke-opacity:1;stroke-miterlimit:10;" d="M 64.500001 38.500001 C 64.500001 39.867188 63.585939 41.019532 62.335939 41.381837 C 62.07129 41.458985 61.79004 41.500001 61.500001 41.500001 C 59.842775 41.500001 58.500001 40.157227 58.500001 38.500001 C 58.500001 36.842774 59.842775 35.500001 61.500001 35.500001 C 63.157228 35.500001 64.500001 36.842774 64.500001 38.500001 Z M 64.500001 38.500001 " transform="matrix(4,0,0,4,0,0)"/>
<path style="fill:none;stroke-width:1;stroke-linecap:round;stroke-linejoin:round;stroke:rgb(20.392157%,22.745098%,34.509805%);stroke-opacity:1;stroke-miterlimit:10;" d="M 50.500001 77.500002 L 50.500001 82.000002 " transform="matrix(4,0,0,4,0,0)"/>
<path style="fill:none;stroke-width:1;stroke-linecap:round;stroke-linejoin:round;stroke:rgb(20.392157%,22.745098%,34.509805%);stroke-opacity:1;stroke-miterlimit:10;" d="M 50.500001 20 L 50.500001 24.500001 " transform="matrix(4,0,0,4,0,0)"/>
</g>
</svg>
